<?xml version="1.0"?>
<svg xmlns="http://www.w3.org/2000/svg" height="512px" viewBox="0 0 512 512" width="512px" class=""><g><g id="Outline"><g id="_26-Profit-payout-receive_copy_4" data-name="26-Profit-payout-receive copy 4"><path d="m280 336a104.118 104.118 0 0 0 104-104v-152h-16v96.637a104.82 104.82 0 0 0 -32-32.237v-96.4h-16v88a103.217 103.217 0 0 0 -32-7.7v-48.3h-16v48.305a103.217 103.217 0 0 0 -32 7.7v-72.005h-16v80.4a104.82 104.82 0 0 0 -32 32.239v-96.639h-16v152a104.118 104.118 0 0 0 104 104zm0-192a88 88 0 1 1 -88 88 88.1 88.1 0 0 1 88-88z" data-original="#000000" class="active-path" data-old_color="#000000" fill="#FF9800"/><path d="m256 272h16v16h16v-16h8a16.019 16.019 0 0 0 16-16v-16a16.019 16.019 0 0 0 -16-16h-32v-16h32v8h16v-16a8 8 0 0 0 -8-8h-16v-16h-16v16h-8a16.019 16.019 0 0 0 -16 16v16a16.019 16.019 0 0 0 16 16h32v16h-32v-8h-16v16a8 8 0 0 0 8 8z" data-original="#000000" class="active-path" data-old_color="#000000" fill="#FF9800"/><path d="m328 224h16v16h-16z" data-original="#000000" class="active-path" data-old_color="#000000" fill="#FF9800"/><path d="m216 224h16v16h-16z" data-original="#000000" class="active-path" data-old_color="#000000" fill="#FF9800"/><path d="m224 32h16v16h-16z" data-original="#000000" class="active-path" data-old_color="#000000" fill="#FF9800"/><path d="m320 16h16v16h-16z" data-original="#000000" class="active-path" data-old_color="#000000" fill="#FF9800"/><path d="m368 48h16v16h-16z" data-original="#000000" class="active-path" data-old_color="#000000" fill="#FF9800"/><path d="m272 48h16v16h-16z" data-original="#000000" class="active-path" data-old_color="#000000" fill="#FF9800"/><path d="m176 48h16v16h-16z" data-original="#000000" class="active-path" data-old_color="#000000" fill="#FF9800"/><path d="m176 16h16v16h-16z" data-original="#000000" class="active-path" data-old_color="#000000" fill="#FF9800"/><path d="m64 376h16v16h-16z" data-original="#000000" class="active-path" data-old_color="#000000" fill="#FF9800"/><path d="m456 384h-120.365a40.068 40.068 0 0 0 -39.195-32h-80a80.1 80.1 0 0 0 -104.919 7.71l-.029-7.74a8 8 0 0 0 -8-7.97h-79.492a8 8 0 0 0 -8 8v136a8 8 0 0 0 8 8h216a7.97 7.97 0 0 0 1.762-.2l248-56a8 8 0 0 0 6.238-7.8v-8a40.045 40.045 0 0 0 -40-40zm-424 96v-120h63.52l.45 120zm448-54.395-240.892 54.395h-127.138l-.35-93.453a63.995 63.995 0 0 1 97.035-20.33 8 8 0 0 0 5.035 1.783h82.75a24 24 0 1 1 0 48h-56.44v16h56.44a40.012 40.012 0 0 0 39.2-32h120.36a24.027 24.027 0 0 1 24 24z" data-original="#000000" class="active-path" data-old_color="#000000" fill="#FF9800"/></g></g></g> </svg>
