<?xml version="1.0"?>
<svg xmlns="http://www.w3.org/2000/svg" id="Layer_1" height="512px" viewBox="0 0 64 64" width="512px" data-name="Layer 1" class=""><g><g fill="rgb(0,0,0)"><path d="m11 13h2v40h-2z" data-original="#000000" class="active-path" data-old_color="#000000" fill="#FF9800"/><path d="m11 51h42v2h-42z" data-original="#000000" class="active-path" data-old_color="#000000" fill="#FF9800"/><path d="m23 53h-8v-14h8zm-6-2h4v-10h-4z" data-original="#000000" class="active-path" data-old_color="#000000" fill="#FF9800"/><path d="m32 53h-8v-23h8zm-6-2h4v-19h-4z" data-original="#000000" class="active-path" data-old_color="#000000" fill="#FF9800"/><path d="m41 53h-8v-18h8zm-6-2h4v-14h-4z" data-original="#000000" class="active-path" data-old_color="#000000" fill="#FF9800"/><path d="m50 53h-8v-29h8zm-6-2h4v-25h-4z" data-original="#000000" class="active-path" data-old_color="#000000" fill="#FF9800"/><path d="m17.57 29.82-1.14-1.64 10.43-7.3 7.92 2.97 11.54-10.59 1.36 1.48-12.46 11.41-8.08-3.03z" data-original="#000000" class="active-path" data-old_color="#000000" fill="#FF9800"/><path d="m48.24 19.48-1.98-.26.67-5.11-5.13.46-.19-1.99 7.62-.69z" data-original="#000000" class="active-path" data-old_color="#000000" fill="#FF9800"/></g></g> </svg>
