<?xml version="1.0"?>
<svg xmlns="http://www.w3.org/2000/svg" height="512px" viewBox="-15 1 495 495.99556" width="512px" class=""><g><path d="m460.753906 150.753906h-456.253906c-1.777344 0-3.339844-1.171875-3.839844-2.878906-.5-1.703125.1875-3.535156 1.6875-4.492188l218.960938-139.8125c6.8125-4.777343 15.929687-4.761718 22.722656.0625l218.875 139.75c1.5.957032 2.183594 2.789063 1.6875 4.492188-.5 1.707031-2.0625 2.878906-3.839844 2.878906zm-442.554687-8h428.859375l-207.496094-132.492187c-4.210938-2.980469-9.660156-2.980469-13.710938-.105469-.050781.035156-.109374.074219-.164062.105469zm205.339843-135.859375h.039063zm0 0" data-original="#000000" class="active-path" data-old_color="#000000" fill="#3F51B5"/><path d="m460.753906 186.320312h-456.253906c-2.207031 0-4-1.792968-4-4v-35.566406c0-2.207031 1.792969-4 4-4h456.25c2.210938 0 4 1.792969 4 4v35.566406c.003906 2.207032-1.785156 4-3.996094 4zm-452.253906-8h448.25v-27.566406h-448.25zm0 0" data-original="#000000" class="active-path" data-old_color="#000000" fill="#3F51B5"/><path d="m460.753906 495.996094h-456.253906c-2.207031 0-4-1.792969-4-4v-36.550782c0-2.210937 1.792969-4 4-4h456.25c2.210938 0 4 1.789063 4 4v36.550782c.003906 2.207031-1.785156 4-3.996094 4zm-452.253906-8h448.25v-28.550782h-448.25zm0 0" data-original="#000000" class="active-path" data-old_color="#000000" fill="#3F51B5"/><path d="m125.878906 459.445312h-81.871094c-2.207031 0-4-1.792968-4-4v-34.625c0-2.207031 1.792969-4 4-4h81.875c2.207032 0 4 1.792969 4 4v34.625c-.003906 2.210938-1.792968 4-4.003906 4zm-77.871094-8h73.875v-26.625h-73.875zm0 0" data-original="#000000" class="active-path" data-old_color="#000000" fill="#3F51B5"/><path d="m126.171875 218.503906h-82.457031c-2.207032 0-4-1.792968-4-4v-32.183594c0-2.207031 1.792968-4 4-4h82.457031c2.207031 0 4 1.792969 4 4v32.183594c0 2.210938-1.792969 4-4 4zm-78.457031-8h74.457031v-24.183594h-74.457031zm0 0" data-original="#000000" class="active-path" data-old_color="#000000" fill="#3F51B5"/><path d="m105.863281 424.820312h-41.839843c-2.207032 0-4-1.792968-4-4v-206.316406c0-2.207031 1.792968-4 4-4h41.839843c2.207031 0 4 1.792969 4 4v206.316406c0 2.207032-1.792969 4-4 4zm-37.839843-8h33.839843v-198.316406h-33.839843zm0 0" data-original="#000000" class="active-path" data-old_color="#000000" fill="#3F51B5"/><path d="m273 218.503906h-82.457031c-2.207031 0-4-1.792968-4-4v-32.183594c0-2.207031 1.792969-4 4-4h82.457031c2.207031 0 4 1.792969 4 4v32.183594c0 2.210938-1.789062 4-4 4zm-78.457031-8h74.457031v-24.183594h-74.457031zm0 0" data-original="#000000" class="active-path" data-old_color="#000000" fill="#3F51B5"/><path d="m252.695312 424.820312h-41.839843c-2.207031 0-4-1.792968-4-4v-206.316406c0-2.207031 1.792969-4 4-4h41.839843c2.207032 0 4 1.792969 4 4v206.316406c0 2.207032-1.792968 4-4 4zm-37.84375-8h33.839844v-198.316406h-33.839844zm0 0" data-original="#000000" class="active-path" data-old_color="#000000" fill="#3F51B5"/><path d="m272.710938 459.445312h-81.875c-2.207032 0-4-1.792968-4-4v-34.625c0-2.207031 1.792968-4 4-4h81.875c2.207031 0 4 1.792969 4 4v34.625c0 2.210938-1.792969 4-4 4zm-77.875-8h73.875v-26.625h-73.875zm0 0" data-original="#000000" class="active-path" data-old_color="#000000" fill="#3F51B5"/><path d="m419.832031 218.503906h-82.457031c-2.207031 0-4-1.792968-4-4v-32.183594c0-2.207031 1.792969-4 4-4h82.457031c2.207031 0 4 1.792969 4 4v32.183594c0 2.210938-1.792969 4-4 4zm-78.457031-8h74.457031v-24.183594h-74.457031zm0 0" data-original="#000000" class="active-path" data-old_color="#000000" fill="#3F51B5"/><path d="m399.523438 424.820312h-41.839844c-2.207032 0-4-1.792968-4-4v-206.316406c0-2.207031 1.792968-4 4-4h41.839844c2.207031 0 4 1.792969 4 4v206.316406c0 2.207032-1.792969 4-4 4zm-37.839844-8h33.839844v-198.316406h-33.839844zm0 0" data-original="#000000" class="active-path" data-old_color="#000000" fill="#3F51B5"/><path d="m419.542969 459.445312h-81.875c-2.207031 0-4-1.792968-4-4v-34.625c0-2.207031 1.792969-4 4-4h81.875c2.207031 0 4 1.792969 4 4v34.625c0 2.210938-1.792969 4-4 4zm-77.875-8h73.875v-26.625h-73.875zm0 0" data-original="#000000" class="active-path" data-old_color="#000000" fill="#3F51B5"/><path d="m228.785156 127.171875v-11.429687c-6.554687-.109376-13.332031-2.148438-17.285156-4.976563l2.710938-7.578125c4.070312 2.714844 9.945312 4.863281 16.273437 4.863281 8.019531 0 13.441406-4.636719 13.441406-11.085937 0-6.226563-4.40625-10.074219-12.765625-13.464844-11.519531-4.527344-18.640625-9.726562-18.640625-19.578125 0-9.386719 6.664063-16.515625 17.058594-18.214844v-11.425781h7.003906v10.972656c6.78125.230469 11.410157 2.039063 14.6875 3.960938l-2.820312 7.46875c-2.375-1.355469-7.007813-3.847656-14.238281-3.847656-8.699219 0-11.976563 5.203124-11.976563 9.726562 0 5.886719 4.179687 8.824219 14.011719 12.898438 11.636718 4.75 17.507812 10.632812 17.507812 20.707031 0 8.941406-6.210937 17.308593-17.851562 19.234375v11.765625zm0 0" data-original="#000000" class="active-path" data-old_color="#000000" fill="#3F51B5"/></g> </svg>
