<?xml version="1.0"?>
<svg xmlns="http://www.w3.org/2000/svg" viewBox="0 0 64 64" width="512px" height="512px" class=""><g><g id="Taxi"><path d="M15,58H11a3.0033,3.0033,0,0,1-3-3V49a1,1,0,0,1,1-1h8a1,1,0,0,1,1,1v6A3.0033,3.0033,0,0,1,15,58Zm-5-8v5a1.0013,1.0013,0,0,0,1,1h4a1.0013,1.0013,0,0,0,1-1V50Z" data-original="#000000" class="active-path" data-old_color="#000000" fill="#FF9800"/><path d="M53,58H49a3.0033,3.0033,0,0,1-3-3V49a1,1,0,0,1,1-1h8a1,1,0,0,1,1,1v6A3.0033,3.0033,0,0,1,53,58Zm-5-8v5a1.0009,1.0009,0,0,0,1,1h4a1.0009,1.0009,0,0,0,1-1V50Z" data-original="#000000" class="active-path" data-old_color="#000000" fill="#FF9800"/><path d="M59,50H5a1,1,0,0,1-1-1V45a1,1,0,0,1,1-1H59a1,1,0,0,1,1,1v4A1,1,0,0,1,59,50ZM6,48H58V46H6Z" data-original="#000000" class="active-path" data-old_color="#000000" fill="#FF9800"/><path d="M57,46H7a1,1,0,0,1-1-1V31a7.0078,7.0078,0,0,1,7-7H51a7.0081,7.0081,0,0,1,7,7V45A1,1,0,0,1,57,46ZM8,44H56V31a5.0059,5.0059,0,0,0-5-5H13a5.0059,5.0059,0,0,0-5,5Z" data-original="#000000" class="active-path" data-old_color="#000000" fill="#FF9800"/><path d="M51.5088,26.02a.9981.9981,0,0,1-.9688-.7573l-2.75-10.99A3.0037,3.0037,0,0,0,44.88,12H19.12a3.0028,3.0028,0,0,0-2.91,2.2749L13.46,25.2627a1,1,0,0,1-1.94-.4854l2.75-10.99A5.002,5.002,0,0,1,19.12,10H44.88a5.0015,5.0015,0,0,1,4.85,3.7847l2.75,10.9926a1,1,0,0,1-.7266,1.2129A1.0256,1.0256,0,0,1,51.5088,26.02Z" data-original="#000000" class="active-path" data-old_color="#000000" fill="#FF9800"/><path d="M14,36a4,4,0,1,1,4-4A4.0045,4.0045,0,0,1,14,36Zm0-6a2,2,0,1,0,2,2A2.002,2.002,0,0,0,14,30Z" data-original="#000000" class="active-path" data-old_color="#000000" fill="#FF9800"/><path d="M50,36a4,4,0,1,1,4-4A4.0042,4.0042,0,0,1,50,36Zm0-6a2,2,0,1,0,2,2A2.0023,2.0023,0,0,0,50,30Z" data-original="#000000" class="active-path" data-old_color="#000000" fill="#FF9800"/><path d="M40,46H24a1,1,0,0,1-1-1V35a5.0059,5.0059,0,0,1,5-5h8a5.0059,5.0059,0,0,1,5,5V45A1,1,0,0,1,40,46ZM25,44H39V35a3.0033,3.0033,0,0,0-3-3H28a3.0033,3.0033,0,0,0-3,3Z" data-original="#000000" class="active-path" data-old_color="#000000" fill="#FF9800"/><path d="M38,12H26a1,1,0,0,1-.97-1.2427l1-4A1,1,0,0,1,27,6H37a1,1,0,0,1,.97.7573l1,4A1,1,0,0,1,38,12ZM27.2808,10h9.438l-.5-2h-8.438Z" data-original="#000000" class="active-path" data-old_color="#000000" fill="#FF9800"/><path d="M28,46a1,1,0,0,1-1-1V31a1,1,0,0,1,2,0V45A1,1,0,0,1,28,46Z" data-original="#000000" class="active-path" data-old_color="#000000" fill="#FF9800"/><path d="M32,46a1,1,0,0,1-1-1V31a1,1,0,0,1,2,0V45A1,1,0,0,1,32,46Z" data-original="#000000" class="active-path" data-old_color="#000000" fill="#FF9800"/><path d="M36,46a1,1,0,0,1-1-1V31a1,1,0,0,1,2,0V45A1,1,0,0,1,36,46Z" data-original="#000000" class="active-path" data-old_color="#000000" fill="#FF9800"/><path d="M15,40H13a1,1,0,0,1,0-2h2a1,1,0,0,1,0,2Z" data-original="#000000" class="active-path" data-old_color="#000000" fill="#FF9800"/><path d="M51,40H49a1,1,0,0,1,0-2h2a1,1,0,0,1,0,2Z" data-original="#000000" class="active-path" data-old_color="#000000" fill="#FF9800"/></g></g> </svg>
