<?xml version="1.0"?>
<svg xmlns="http://www.w3.org/2000/svg" xmlns:svg="http://www.w3.org/2000/svg" id="svg17149" height="512px" viewBox="0 0 16.933333 16.933334" width="512px" class=""><g><g id="layer1" transform="translate(0 -280.067)"><path id="path13357" d="m1.3228862 283.50618a.26460982.26460982 0 0 0 -.2635488.26355v9.52552a.26460982.26460982 0 0 0 .2635488.26562h14.2869848a.26460982.26460982 0 0 0 .265615-.26562v-9.52552a.26460982.26460982 0 0 0 -.265615-.26355zm.2656179.52969h13.7578149v8.99583h-13.7578149zm6.875031.52503a.26460982.26460982 0 0 0 -.261998.26768v.81908c-.7479.12723-1.322401.77874-1.322401 1.56166 0 .86594.70216 1.57458 1.565281 1.58698a.264648.264648 0 0 0 .02273.001c.587639 0 1.058852.47069 1.058852 1.05833 0 .57896-.458037 1.04265-1.033529 1.05627a.26460982.26460982 0 0 0 -.02894-.002.26460982.26460982 0 0 0 -.02119.002c-.575691-.0134-1.033529-.47716-1.033529-1.05627a.26484135.26484135 0 1 0 -.529682 0c0 .78292.574487 1.4367 1.3224 1.56425v.817a.2648415.2648415 0 1 0 .529683 0v-.817c.748498-.12679 1.3218829-.78068 1.3218829-1.56425 0-.8656-.6995509-1.57352-1.5621779-1.58647a.264648.264648 0 0 0 -.02376-.001c-.587618-.00001-1.058333-.47122-1.058333-1.05886 0-.58763.470715-1.05626 1.058333-1.05626.58764 0 1.058852.46863 1.058852 1.05626a.26460982.26460982 0 1 0 .5270979 0c0-.78356-.5733969-1.43519-1.3218819-1.56166v-.81907a.26460982.26460982 0 0 0 -.267685-.26767zm-4.7593988.004a.26460979.26460979 0 0 0 -.2645833.26458c.0000106.58764-.4706911 1.05834-1.0583334 1.05833a.26460979.26460979 0 0 0 -.2645833.26459v4.7625a.26460979.26460979 0 0 0 .2645833.26458c.5876423 0 1.058344.4707 1.0583334 1.05833a.26460979.26460979 0 0 0 .2645833.26459h3.7041668a.26460979.26460979 0 1 0 0-.52917h-3.4933256c-.1153107-.65421-.6149657-1.15386-1.2691746-1.26917v-4.34082c.6542089-.11532 1.1538639-.61496 1.2691746-1.26918h3.4933256a.26460979.26460979 0 1 0 0-.52916zm5.8208338 0a.26460979.26460979 0 1 0 0 .52916h3.4933259c.115321.65422.614965 1.15386 1.269174 1.26918v4.34082c-.654209.11531-1.153853.61496-1.269174 1.26917h-3.4933259a.26460979.26460979 0 1 0 0 .52917h3.7041669a.26460979.26460979 0 0 0 .264583-.26459c0-.58763.470705-1.05833 1.058334-1.05833a.26460979.26460979 0 0 0 .264583-.26458v-4.7625a.26460979.26460979 0 0 0 -.264583-.26459c-.587629.00001-1.058334-.47069-1.058334-1.05833a.26460979.26460979 0 0 0 -.264583-.26458z" font-variant-ligatures="normal" font-variant-position="normal" font-variant-caps="normal" font-variant-numeric="normal" font-variant-alternates="normal" font-feature-settings="normal" text-indent="0" text-align="start" text-decoration-line="none" text-decoration-style="solid" text-decoration-color="rgb(0,0,0)" text-transform="none" text-orientation="mixed" white-space="normal" shape-padding="0" isolation="auto" mix-blend-mode="normal" solid-color="rgb(0,0,0)" solid-opacity="1" vector-effect="none" data-original="#000000" class="active-path" data-old_color="#000000" fill="#FF9800"/></g></g> </svg>
