<?xml version="1.0"?>
<svg xmlns="http://www.w3.org/2000/svg" id="Capa_1" enable-background="new 0 0 64 64" height="512px" viewBox="0 0 64 64" width="512px" class=""><g><path d="m54 13h-44c-3.955 0-5 3.271-5 5v28c0 3.955 3.271 5 5 5h44c3.955 0 5-3.271 5-5v-28c0-3.955-3.271-5-5-5zm-44 2h43.994c.502.006 3.006.177 3.006 3v.999h-50v-.994c.006-.502.177-3.005 3-3.005zm47 5.999v3.999h-50v-3.999zm-3 28.001h-43.995c-.502-.006-3.005-.177-3.005-3v-19.002h50v18.997c-.006.501-.177 3.005-3 3.005zm-.999-4.999c0 .553-.447 1-1 1h-12c-.553 0-1-.447-1-1s.447-1 1-1h12c.553 0 1 .447 1 1zm-15.997 0c0 .553-.447 1-1 1h-8.003c-.552 0-1-.447-1-1s.448-1 1-1h8.003c.553 0 1 .447 1 1z" data-original="#000000" class="active-path" data-old_color="#000000" fill="#FF9800"/></g> </svg>
