<?xml version="1.0"?>
<svg xmlns="http://www.w3.org/2000/svg" id="Layer_1" data-name="Layer 1" viewBox="0 0 64 64" width="512px" height="512px" class=""><g><path d="M54,3H10A1,1,0,0,0,9,4V38a1,1,0,0,0,1,1H28.14A4.09,4.09,0,0,0,28,40v4H27a1,1,0,0,0,0,2H12a1,1,0,0,0-1,1V60a1,1,0,0,0,1,1H52a1,1,0,0,0,1-1V47a1,1,0,0,0-1-1H37a1,1,0,0,0,0-2H36V40a4.09,4.09,0,0,0-.14-1H54a1,1,0,0,0,1-1V4A1,1,0,0,0,54,3ZM51,48V59H13V48ZM30,44V40a2,2,0,0,1,4,0v4Zm23-7H34.62a3.93,3.93,0,0,0-5.24,0H11V5H53Z" data-original="#000000" class="active-path" data-old_color="#000000" fill="#FF9800"/><path d="M14,35H50a1,1,0,0,0,1-1V8a1,1,0,0,0-1-1H14a1,1,0,0,0-1,1V34A1,1,0,0,0,14,35ZM15,9H49V33H15Z" data-original="#000000" class="active-path" data-old_color="#000000" fill="#FF9800"/><path d="M41,57h7a1,1,0,0,0,1-1V51a1,1,0,0,0-1-1H41a1,1,0,0,0-1,1v5A1,1,0,0,0,41,57Zm1-5h5v3H42Z" data-original="#000000" class="active-path" data-old_color="#000000" fill="#FF9800"/><circle cx="29" cy="51" r="1" data-original="#000000" class="active-path" data-old_color="#000000" fill="#FF9800"/><circle cx="37" cy="51" r="1" data-original="#000000" class="active-path" data-old_color="#000000" fill="#FF9800"/><circle cx="33" cy="51" r="1" data-original="#000000" class="active-path" data-old_color="#000000" fill="#FF9800"/><path d="M17,55a1,1,0,0,0,1-1V51a1,1,0,0,0-2,0v3A1,1,0,0,0,17,55Z" data-original="#000000" class="active-path" data-old_color="#000000" fill="#FF9800"/></g> </svg>
