<?xml version="1.0" encoding="iso-8859-1"?>
<!-- Generator: Adobe Illustrator 19.0.0, SVG Export Plug-In . SVG Version: 6.00 Build 0)  -->
<svg version="1.1" id="Layer_1" xmlns="http://www.w3.org/2000/svg" xmlns:xlink="http://www.w3.org/1999/xlink" x="0px" y="0px"
	 viewBox="0 0 512 512" style="enable-background:new 0 0 512 512;" xml:space="preserve">
<g>
	<g>
		<path d="M369.968,154.822c-2.56-3.659-7.602-4.548-11.259-1.988c-3.658,2.561-4.548,7.602-1.988,11.259
			c14.306,20.437,21.868,44.475,21.868,69.518c0,42.979-23.109,83.164-60.31,104.874c-2.483,1.449-4.01,4.108-4.01,6.983v35.567
			h-48.964v-80.487c12.95-3.986,22.389-16.06,22.389-30.3c0-17.477-14.219-31.695-31.695-31.695s-31.695,14.219-31.695,31.695
			c0,15.121,10.646,27.793,24.834,30.939v79.847h-48.966v-35.567c0-2.875-1.526-5.534-4.01-6.983
			c-37.201-21.71-60.31-61.895-60.31-104.874c0-66.924,54.447-121.371,121.371-121.371c29.5,0,57.937,10.711,80.071,30.158
			c3.353,2.948,8.463,2.618,11.408-0.737c2.947-3.353,2.618-8.463-0.737-11.408c-25.087-22.043-57.314-34.182-90.743-34.182
			c-75.838,0-137.539,61.7-137.539,137.539c0,47.143,24.529,91.316,64.32,116.405v39.102v76.535c0,4.466,3.618,8.084,8.084,8.084
			h23.424C217.345,495.138,235.344,512,257.216,512c21.873,0,39.871-16.862,41.707-38.266h23.424c4.466,0,8.084-3.618,8.084-8.084
			v-76.407c0.001-0.042,0.006-0.082,0.006-0.124v-39.102c39.791-25.089,64.32-69.262,64.32-116.405
			C394.759,205.234,386.186,177.989,369.968,154.822z M240.472,270.248c0-8.562,6.965-15.527,15.527-15.527
			s15.527,6.965,15.527,15.527s-6.965,15.527-15.527,15.527S240.472,278.81,240.472,270.248z M257.217,495.832
			c-12.95,0-23.692-9.627-25.451-22.098h50.903C280.911,486.205,270.167,495.832,257.217,495.832z M314.264,457.565h-23.589h-66.914
			h-23.59v-22.098h114.093V457.565z M314.264,419.299H200.172v-22.097h114.092V419.299z"/>
	</g>
</g>
<g>
	<g>
		<path d="M481.526,225.526h-56.373c-4.466,0-8.084,3.618-8.084,8.084c0,4.466,3.618,8.084,8.084,8.084h56.373
			c4.466,0,8.084-3.618,8.084-8.084C489.61,229.145,485.992,225.526,481.526,225.526z"/>
	</g>
</g>
<g>
	<g>
		<path d="M86.847,225.526H30.474c-4.466,0-8.084,3.618-8.084,8.084c0,4.466,3.619,8.084,8.084,8.084h56.373
			c4.465,0,8.084-3.619,8.084-8.084S91.313,225.526,86.847,225.526z"/>
	</g>
</g>
<g>
	<g>
		<path d="M421.188,68.425c-3.158-3.156-8.276-3.156-11.433,0l-39.862,39.862c-3.157,3.158-3.157,8.276,0,11.433
			c1.578,1.577,3.648,2.367,5.716,2.367s4.138-0.789,5.717-2.367l39.862-39.862C424.345,76.7,424.345,71.582,421.188,68.425z"/>
	</g>
</g>
<g>
	<g>
		<path d="M142.108,347.504c-3.158-3.156-8.276-3.156-11.434,0l-39.86,39.86c-3.157,3.158-3.157,8.276,0,11.433
			c1.579,1.578,3.649,2.367,5.717,2.367c2.068,0,4.138-0.789,5.717-2.367l39.86-39.86
			C145.265,355.779,145.265,350.661,142.108,347.504z"/>
	</g>
</g>
<g>
	<g>
		<path d="M255.999,0c-4.466,0-8.084,3.618-8.084,8.084v56.374c0,4.465,3.62,8.084,8.084,8.084c4.466,0,8.084-3.618,8.084-8.084
			V8.084C264.084,3.618,260.465,0,255.999,0z"/>
	</g>
</g>
<g>
	<g>
		<path d="M142.108,108.285l-39.863-39.862c-3.157-3.158-8.276-3.157-11.432-0.001c-3.158,3.158-3.158,8.276-0.001,11.433
			l39.862,39.862c1.579,1.579,3.648,2.368,5.717,2.368c2.068,0,4.138-0.789,5.716-2.367
			C145.265,116.56,145.265,111.442,142.108,108.285z"/>
	</g>
</g>
<g>
	<g>
		<path d="M421.189,387.364l-39.863-39.862c-3.158-3.156-8.276-3.156-11.433,0c-3.157,3.158-3.157,8.276,0,11.433l39.862,39.862
			c1.579,1.578,3.649,2.367,5.717,2.367c2.068,0,4.138-0.789,5.717-2.367C424.346,395.639,424.346,390.521,421.189,387.364z"/>
	</g>
</g>
<g>
</g>
<g>
</g>
<g>
</g>
<g>
</g>
<g>
</g>
<g>
</g>
<g>
</g>
<g>
</g>
<g>
</g>
<g>
</g>
<g>
</g>
<g>
</g>
<g>
</g>
<g>
</g>
<g>
</g>
</svg>
