<?xml version="1.0"?>
<svg xmlns="http://www.w3.org/2000/svg" height="512px" viewBox="-80 0 496 496" width="512px" class=""><g><path d="m168 496c-.832031 0-1.640625-.128906-2.398438-.367188h-157.601562c-4.425781 0-8-3.585937-8-8v-179.929687c0-11.824219 7.910156-22.488281 20.160156-27.152344l86.777344-33.125c2.132812-.808593 4.519531-.671875 6.542969.375 2.03125 1.054688 3.511719 2.933594 4.0625 5.160157l50.457031 202.03125 50.472656-202.023438c.558594-2.273438 2.09375-4.175781 4.183594-5.226562 2.105469-1.039063 4.542969-1.117188 6.695312-.199219l87.703126 37.199219c11.503906 4.882812 18.945312 15.347656 18.945312 26.664062v176.226562c0 4.414063-3.574219 8-8 8h-157.601562c-.757813.238282-1.566407.367188-2.398438.367188zm10.335938-16.367188h141.664062v-168.226562c0-4.957031-3.519531-9.535156-9.191406-11.941406l-79.089844-33.542969zm-162.335938 0h141.664062l-53.464843-214.039062-78.34375 29.902344c-5.992188 2.289062-9.855469 7.078125-9.855469 12.207031zm0 0" data-original="#000000" class="active-path" data-old_color="#000000" fill="#3F51B5"/><path d="m168 376.441406s-.007812 0-.015625 0c-4.9375 0-9.199219-3.015625-10.878906-7.671875l-12.410157-33.273437 4.824219-40.953125c.671875-5.726563-.695312-11.527344-3.855469-16.335938l-6.257812-9.511719c-4.421875-7.679687-3.421875-16.726562 2.226562-22.933593 3.574219-3.929688 8.839844-6.1875 14.445313-6.1875h23.859375c5.597656 0 10.863281 2.257812 14.445312 6.195312h.007813c5.632813 6.199219 6.632813 15.238281 2.488281 22.503907l-6.511718 9.941406c-3.167969 4.808594-4.535157 10.601562-3.855469 16.328125l4.816406 40.960937-12.433594 33.359375c-1.6875 4.570313-5.957031 7.578125-10.894531 7.578125zm-4.121094-13.175781c-.015625.023437-.023437.046875-.03125.070313zm8.21875-.089844.03125.082031c-.007812-.027343-.015625-.050781-.03125-.082031zm-11.058594-29.65625 6.960938 18.679688 6.960938-18.671875-4.359376-37.121094c-1.121093-9.460938 1.152344-19.046875 6.382813-27l6.246094-9.503906c.441406-.796875.265625-2.328125-.695313-3.375-.542968-.597656-1.519531-.953125-2.605468-.953125h-23.859376c-1.09375 0-2.070312.363281-2.613281.960937-.953125 1.050782-1.128906 2.578125-.433593 3.792969l6.007812 9.105469c5.214844 7.933594 7.488281 17.519531 6.375 26.980468zm0 0" data-original="#000000" class="active-path" data-old_color="#000000" fill="#3F51B5"/><path d="m168 224.496094c-53.265625 0-96.59375-43.671875-96.59375-97.351563v-29.785156c0-53.6875 43.328125-97.359375 96.59375-97.359375s96.59375 43.671875 96.59375 97.351562v29.785157c0 53.6875-43.328125 97.359375-96.59375 97.359375zm0-208.496094c-44.441406 0-80.59375 36.496094-80.59375 81.351562v29.785157c0 44.855469 36.160156 81.351562 80.59375 81.351562s80.59375-36.488281 80.59375-81.351562v-29.785157c0-44.855468-36.152344-81.351562-80.59375-81.351562zm0 0" data-original="#000000" class="active-path" data-old_color="#000000" fill="#3F51B5"/></g> </svg>
